<svg id="svg" version="1.1" xmlns="http://www.w3.org/2000/svg" xmlns:xlink="http://www.w3.org/1999/xlink" width="400" height="400" viewBox="0, 0, 400,400"><g id="svgg"><path id="path0" d="M75.500 26.032 C 74.859 26.405,74.800 27.403,74.800 37.806 C 74.800 48.634,74.763 49.191,74.026 49.586 C 73.547 49.842,69.081 50.000,62.288 50.000 C 48.448 50.000,50.000 48.439,50.000 62.358 C 50.000 69.103,49.842 73.547,49.586 74.026 C 49.191 74.763,48.634 74.800,37.800 74.800 C 26.966 74.800,26.409 74.837,26.014 75.574 C 25.435 76.656,25.435 323.344,26.014 324.426 C 26.409 325.163,26.966 325.200,37.800 325.200 C 48.634 325.200,49.191 325.237,49.586 325.974 C 49.842 326.453,50.000 330.919,50.000 337.712 C 50.000 351.552,48.439 350.000,62.358 350.000 C 69.103 350.000,73.547 350.158,74.026 350.414 C 74.763 350.809,74.800 351.366,74.800 362.200 C 74.800 373.034,74.837 373.591,75.574 373.986 C 76.656 374.565,323.344 374.565,324.426 373.986 C 325.163 373.591,325.200 373.034,325.200 362.200 C 325.200 351.366,325.237 350.809,325.974 350.414 C 326.453 350.158,330.919 350.000,337.712 350.000 C 351.552 350.000,350.000 351.561,350.000 337.642 C 350.000 330.897,350.158 326.453,350.414 325.974 C 350.809 325.237,351.366 325.200,362.200 325.200 C 373.034 325.200,373.591 325.163,373.986 324.426 C 374.565 323.344,374.565 76.656,373.986 75.574 C 373.591 74.837,373.034 74.800,362.200 74.800 C 351.366 74.800,350.809 74.763,350.414 74.026 C 350.158 73.547,350.000 69.081,350.000 62.288 C 350.000 48.448,351.561 50.000,337.642 50.000 C 330.897 50.000,326.453 49.842,325.974 49.586 C 325.237 49.191,325.200 48.634,325.200 37.800 C 325.200 26.966,325.163 26.409,324.426 26.014 C 323.355 25.440,76.485 25.458,75.500 26.032 M299.111 50.223 C 299.994 50.841,300.000 50.922,300.000 62.143 C 300.000 70.396,300.129 73.569,300.480 73.920 C 300.831 74.271,304.013 74.400,312.298 74.400 L 323.636 74.400 324.618 75.382 L 325.600 76.364 325.600 87.702 C 325.600 95.987,325.729 99.169,326.080 99.520 C 326.431 99.871,329.604 100.000,337.857 100.000 C 349.078 100.000,349.159 100.006,349.777 100.889 C 350.729 102.248,350.729 297.752,349.777 299.111 C 349.159 299.994,349.078 300.000,337.857 300.000 C 329.604 300.000,326.431 300.129,326.080 300.480 C 325.729 300.831,325.600 304.013,325.600 312.298 L 325.600 323.636 324.618 324.618 L 323.636 325.600 312.298 325.600 C 304.013 325.600,300.831 325.729,300.480 326.080 C 300.129 326.431,300.000 329.604,300.000 337.857 C 300.000 349.078,299.994 349.159,299.111 349.777 C 297.752 350.729,102.248 350.729,100.889 349.777 C 100.006 349.159,100.000 349.078,100.000 337.857 C 100.000 329.604,99.871 326.431,99.520 326.080 C 99.169 325.729,95.987 325.600,87.702 325.600 L 76.364 325.600 75.382 324.618 L 74.400 323.636 74.400 312.298 C 74.400 304.013,74.271 300.831,73.920 300.480 C 73.569 300.129,70.396 300.000,62.143 300.000 C 50.922 300.000,50.841 299.994,50.223 299.111 C 49.271 297.752,49.271 102.248,50.223 100.889 C 50.841 100.006,50.922 100.000,62.143 100.000 C 70.396 100.000,73.569 99.871,73.920 99.520 C 74.271 99.169,74.400 95.987,74.400 87.702 L 74.400 76.364 75.382 75.382 L 76.364 74.400 87.702 74.400 C 95.987 74.400,99.169 74.271,99.520 73.920 C 99.871 73.569,100.000 70.396,100.000 62.143 C 100.000 50.922,100.006 50.841,100.889 50.223 C 102.248 49.271,297.752 49.271,299.111 50.223 M98.706 61.900 L 98.812 73.600 87.006 73.600 L 75.200 73.600 75.200 62.531 C 75.200 48.378,73.628 49.960,87.568 50.094 L 98.600 50.200 98.706 61.900 M324.069 50.662 C 324.744 51.273,324.800 52.180,324.800 62.462 L 324.800 73.600 313.000 73.600 L 301.200 73.600 301.200 62.067 C 301.200 55.723,301.320 50.413,301.467 50.267 C 302.127 49.607,323.312 49.977,324.069 50.662 M73.600 87.006 L 73.600 98.812 61.900 98.706 L 50.200 98.600 50.093 87.639 C 49.957 73.619,48.385 75.200,62.462 75.200 L 73.600 75.200 73.600 87.006 M349.345 75.939 C 349.941 76.598,350.002 77.863,349.907 87.639 L 349.800 98.600 338.100 98.706 L 326.400 98.812 326.400 87.006 L 326.400 75.200 337.538 75.200 C 347.860 75.200,348.725 75.254,349.345 75.939 M73.600 313.000 L 73.600 324.800 62.531 324.800 C 52.793 324.800,51.375 324.720,50.731 324.138 C 49.984 323.462,49.548 302.185,50.267 301.467 C 50.413 301.320,55.723 301.200,62.067 301.200 L 73.600 301.200 73.600 313.000 M349.907 312.361 C 350.043 326.381,351.615 324.800,337.538 324.800 L 326.400 324.800 326.400 312.994 L 326.400 301.188 338.100 301.294 L 349.800 301.400 349.907 312.361 M98.706 338.100 L 98.600 349.800 87.639 349.907 C 73.619 350.043,75.200 351.615,75.200 337.538 L 75.200 326.400 87.006 326.400 L 98.812 326.400 98.706 338.100 M324.800 337.538 C 324.800 351.615,326.381 350.043,312.361 349.907 L 301.400 349.800 301.294 338.100 L 301.188 326.400 312.994 326.400 L 324.800 326.400 324.800 337.538 " stroke="none" fill="#fc8c04" fill-rule="evenodd"></path><path id="path1" d="M150.843 100.948 C 150.520 101.337,150.418 104.859,150.494 113.048 L 150.600 124.600 200.000 124.600 L 249.400 124.600 249.506 113.048 C 249.582 104.859,249.480 101.337,249.157 100.948 C 248.477 100.129,151.523 100.129,150.843 100.948 M125.829 125.829 C 125.266 126.392,125.201 127.860,125.294 137.935 L 125.400 149.400 137.046 149.506 C 146.581 149.593,148.776 149.511,149.152 149.057 C 149.481 148.661,149.582 145.212,149.506 136.952 L 149.400 125.400 137.935 125.294 C 127.860 125.201,126.392 125.266,125.829 125.829 M250.667 125.467 C 250.096 126.037,250.365 148.673,250.948 149.157 C 251.337 149.480,254.859 149.582,263.048 149.506 L 274.600 149.400 274.706 137.935 C 274.799 127.905,274.733 126.390,274.178 125.835 C 273.517 125.174,251.307 124.827,250.667 125.467 M100.886 150.874 C 100.123 151.637,100.184 248.523,100.948 249.157 C 101.337 249.480,104.859 249.582,113.048 249.506 L 124.600 249.400 124.600 200.000 L 124.600 150.600 112.986 150.494 C 104.288 150.415,101.250 150.510,100.886 150.874 M275.385 150.900 C 275.280 151.175,275.240 173.450,275.297 200.400 L 275.400 249.400 286.952 249.506 C 295.141 249.582,298.663 249.480,299.052 249.157 C 299.810 248.527,299.878 151.638,299.120 150.880 C 298.415 150.175,275.653 150.194,275.385 150.900 M175.829 175.829 C 175.009 176.648,174.871 198.311,175.680 199.120 C 176.031 199.471,179.298 199.600,187.880 199.600 L 199.600 199.600 199.600 187.880 C 199.600 179.298,199.471 176.031,199.120 175.680 C 198.311 174.871,176.648 175.009,175.829 175.829 M200.400 212.120 C 200.400 220.702,200.529 223.969,200.880 224.320 C 201.689 225.129,223.352 224.991,224.171 224.171 C 224.991 223.352,225.129 201.689,224.320 200.880 C 223.969 200.529,220.702 200.400,212.120 200.400 L 200.400 200.400 200.400 212.120 M125.467 250.667 C 124.827 251.307,125.174 273.517,125.835 274.178 C 126.390 274.733,127.905 274.799,137.935 274.706 L 149.400 274.600 149.506 263.048 C 149.582 254.859,149.480 251.337,149.157 250.948 C 148.673 250.365,126.037 250.096,125.467 250.667 M250.848 250.943 C 250.519 251.339,250.418 254.788,250.494 263.048 L 250.600 274.600 262.065 274.706 C 272.140 274.799,273.608 274.734,274.171 274.171 C 274.734 273.608,274.799 272.140,274.706 262.065 L 274.600 250.600 262.954 250.494 C 253.419 250.407,251.224 250.489,250.848 250.943 M150.668 275.465 C 150.156 275.978,150.358 298.598,150.880 299.120 C 151.638 299.878,248.527 299.810,249.157 299.052 C 249.480 298.663,249.582 295.141,249.506 286.952 L 249.400 275.400 200.168 275.298 C 173.091 275.243,150.816 275.318,150.668 275.465 " stroke="none" fill="#04fc14" fill-rule="evenodd"></path><path id="path2" d="M62.600 25.188 C 54.813 25.333,50.641 25.564,49.906 25.890 L 48.813 26.375 48.706 37.488 L 48.600 48.600 37.440 48.800 L 26.280 49.000 25.757 50.510 C 25.014 52.660,24.769 75.133,25.500 74.132 C 25.871 73.624,26.000 70.637,26.000 62.556 C 26.000 56.566,26.109 51.381,26.243 51.033 C 26.456 50.477,27.805 50.400,37.274 50.400 L 48.062 50.400 49.231 49.231 L 50.400 48.062 50.400 37.274 C 50.400 27.805,50.477 26.456,51.033 26.243 C 51.381 26.109,56.566 26.000,62.556 26.000 C 71.513 26.000,73.585 25.896,74.224 25.413 C 74.651 25.090,74.820 24.858,74.600 24.898 C 74.380 24.938,68.980 25.068,62.600 25.188 M325.868 25.500 C 326.376 25.871,329.363 26.000,337.444 26.000 C 343.434 26.000,348.619 26.109,348.967 26.243 C 349.523 26.456,349.600 27.805,349.600 37.274 L 349.600 48.062 350.769 49.231 L 351.938 50.400 362.726 50.400 C 372.195 50.400,373.544 50.477,373.757 51.033 C 373.891 51.381,374.000 56.566,374.000 62.556 C 374.000 70.637,374.129 73.624,374.500 74.132 C 375.231 75.133,374.986 52.660,374.243 50.510 L 373.720 49.000 362.560 48.800 L 351.400 48.600 351.200 37.440 L 351.000 26.280 349.490 25.757 C 347.340 25.014,324.867 24.769,325.868 25.500 M101.200 62.538 C 101.200 74.648,101.211 74.577,99.200 75.316 C 98.686 75.505,98.690 75.541,99.230 75.568 C 99.577 75.586,100.283 75.150,100.800 74.600 L 101.739 73.600 200.000 73.600 L 298.261 73.600 299.200 74.600 C 299.717 75.150,300.423 75.586,300.770 75.568 C 301.310 75.541,301.314 75.505,300.800 75.316 C 298.789 74.577,298.800 74.648,298.800 62.538 L 298.800 51.200 200.000 51.200 L 101.200 51.200 101.200 62.538 M81.924 75.899 C 85.073 75.967,90.113 75.967,93.124 75.899 C 96.136 75.831,93.560 75.776,87.400 75.776 C 81.240 75.776,78.776 75.832,81.924 75.899 M307.124 75.899 C 310.273 75.967,315.313 75.967,318.324 75.899 C 321.336 75.831,318.760 75.776,312.600 75.776 C 306.440 75.776,303.976 75.832,307.124 75.899 M75.776 87.400 C 75.776 93.560,75.832 96.024,75.899 92.876 C 75.967 89.727,75.967 84.687,75.899 81.676 C 75.831 78.664,75.776 81.240,75.776 87.400 M324.176 87.400 C 324.176 93.560,324.232 96.024,324.299 92.876 C 324.367 89.727,324.367 84.687,324.299 81.676 C 324.231 78.664,324.176 81.240,324.176 87.400 M75.232 99.238 C 75.140 101.089,74.417 101.200,62.469 101.200 L 51.200 101.200 51.200 200.000 L 51.200 298.800 62.538 298.800 C 74.648 298.800,74.577 298.789,75.316 300.800 C 75.505 301.314,75.541 301.310,75.568 300.770 C 75.586 300.423,75.150 299.717,74.600 299.200 L 73.600 298.261 73.600 200.052 L 73.600 101.844 74.644 100.754 C 75.218 100.155,75.592 99.425,75.476 99.132 C 75.322 98.749,75.254 98.778,75.232 99.238 M324.432 99.230 C 324.414 99.577,324.850 100.283,325.400 100.800 L 326.400 101.739 326.400 200.000 L 326.400 298.261 325.400 299.200 C 324.850 299.717,324.414 300.423,324.432 300.770 C 324.459 301.310,324.495 301.314,324.684 300.800 C 325.423 298.789,325.352 298.800,337.462 298.800 L 348.800 298.800 348.800 200.000 L 348.800 101.200 337.462 101.200 C 325.352 101.200,325.423 101.211,324.684 99.200 C 324.495 98.686,324.459 98.690,324.432 99.230 M150.470 100.526 C 149.619 101.432,149.600 101.697,149.600 112.883 C 149.600 122.938,149.524 124.344,148.967 124.557 C 148.619 124.691,143.337 124.800,137.229 124.800 C 123.218 124.800,124.800 123.210,124.800 137.299 C 124.800 143.368,124.691 148.619,124.557 148.967 C 124.344 149.524,122.933 149.600,112.827 149.600 L 101.339 149.600 100.470 150.526 L 99.600 151.452 99.600 200.056 L 99.600 248.661 100.526 249.530 C 101.432 250.381,101.697 250.400,112.883 250.400 C 122.938 250.400,124.344 250.476,124.557 251.033 C 124.691 251.381,124.800 256.663,124.800 262.771 C 124.800 276.782,123.210 275.200,137.299 275.200 C 143.368 275.200,148.619 275.309,148.967 275.443 C 149.524 275.656,149.600 277.067,149.600 287.173 L 149.600 298.661 150.526 299.530 L 151.452 300.400 200.056 300.400 L 248.661 300.400 249.530 299.474 C 250.381 298.568,250.400 298.303,250.400 287.117 C 250.400 277.062,250.476 275.656,251.033 275.443 C 251.381 275.309,256.663 275.200,262.771 275.200 C 276.782 275.200,275.200 276.790,275.200 262.701 C 275.200 256.632,275.309 251.381,275.443 251.033 C 275.656 250.476,277.067 250.400,287.173 250.400 L 298.661 250.400 299.530 249.474 L 300.400 248.548 300.400 199.944 L 300.400 151.339 299.474 150.470 C 298.568 149.619,298.303 149.600,287.117 149.600 C 277.062 149.600,275.656 149.524,275.443 148.967 C 275.309 148.619,275.200 143.337,275.200 137.229 C 275.200 123.218,276.790 124.800,262.701 124.800 C 256.632 124.800,251.381 124.691,251.033 124.557 C 250.476 124.344,250.400 122.933,250.400 112.827 L 250.400 101.339 249.474 100.470 L 248.548 99.600 199.944 99.600 L 151.339 99.600 150.470 100.526 M249.200 100.800 C 250.001 101.601,250.493 122.249,249.757 124.167 C 249.385 125.137,150.615 125.137,150.243 124.167 C 149.507 122.249,149.999 101.601,150.800 100.800 C 151.591 100.009,152.133 100.000,200.000 100.000 C 247.867 100.000,248.409 100.009,249.200 100.800 M149.757 125.833 C 150.493 127.751,150.001 148.399,149.200 149.200 C 148.399 150.001,127.751 150.493,125.833 149.757 C 125.007 149.440,124.861 126.499,125.680 125.680 C 126.499 124.861,149.440 125.007,149.757 125.833 M248.967 125.443 C 249.524 125.656,249.600 127.062,249.600 137.117 C 249.600 148.303,249.619 148.568,250.470 149.474 L 251.339 150.400 262.827 150.400 C 272.933 150.400,274.344 150.476,274.557 151.033 C 274.875 151.860,274.875 248.140,274.557 248.967 C 274.344 249.524,272.938 249.600,262.883 249.600 C 251.697 249.600,251.432 249.619,250.526 250.470 L 249.600 251.339 249.600 262.827 C 249.600 272.933,249.524 274.344,248.967 274.557 C 248.140 274.875,151.860 274.875,151.033 274.557 C 150.476 274.344,150.400 272.938,150.400 262.883 C 150.400 251.697,150.381 251.432,149.530 250.526 L 148.661 249.600 137.173 249.600 C 127.067 249.600,125.656 249.524,125.443 248.967 C 125.125 248.140,125.125 151.860,125.443 151.033 C 125.656 150.476,127.062 150.400,137.117 150.400 C 148.303 150.400,148.568 150.381,149.474 149.530 L 150.400 148.661 150.400 137.164 C 150.400 128.340,150.516 125.620,150.900 125.465 C 151.621 125.174,248.210 125.152,248.967 125.443 M274.320 125.680 C 275.139 126.499,274.993 149.440,274.167 149.757 C 272.249 150.493,251.601 150.001,250.800 149.200 C 249.999 148.399,249.507 127.751,250.243 125.833 C 250.560 125.007,273.501 124.861,274.320 125.680 M124.167 150.243 C 125.137 150.615,125.137 249.385,124.167 249.757 C 122.249 250.493,101.601 250.001,100.800 249.200 C 99.539 247.939,99.539 152.061,100.800 150.800 C 101.601 149.999,122.249 149.507,124.167 150.243 M299.200 150.800 C 299.991 151.591,300.000 152.133,300.000 200.000 C 300.000 247.867,299.991 248.409,299.200 249.200 C 298.399 250.001,277.751 250.493,275.833 249.757 C 274.980 249.430,274.848 150.609,275.700 150.265 C 277.472 149.550,298.427 150.027,299.200 150.800 M175.462 175.531 C 174.459 176.639,174.458 198.818,175.461 199.651 C 175.974 200.078,178.714 200.245,187.761 200.400 L 199.400 200.600 199.600 212.239 C 199.755 221.286,199.922 224.026,200.349 224.539 C 201.231 225.601,223.573 225.535,224.538 224.469 C 225.541 223.361,225.542 201.182,224.539 200.349 C 224.026 199.922,221.286 199.755,212.239 199.600 L 200.600 199.400 200.400 187.761 C 200.245 178.714,200.078 175.974,199.651 175.461 C 198.769 174.399,176.427 174.465,175.462 175.531 M199.269 175.862 C 200.307 176.802,200.401 198.341,199.371 199.371 C 198.400 200.343,177.008 200.312,175.931 199.338 C 175.019 198.512,174.785 176.575,175.680 175.680 C 176.516 174.844,198.330 175.012,199.269 175.862 M224.069 200.662 C 224.981 201.488,225.215 223.425,224.320 224.320 C 223.484 225.156,201.670 224.988,200.731 224.138 C 199.693 223.198,199.599 201.659,200.629 200.629 C 201.600 199.657,222.992 199.688,224.069 200.662 M149.200 250.800 C 150.001 251.601,150.493 272.249,149.757 274.167 C 149.440 274.993,126.499 275.139,125.680 274.320 C 124.975 273.615,124.994 250.550,125.700 250.265 C 127.472 249.550,148.427 250.027,149.200 250.800 M274.167 250.243 C 274.993 250.560,275.139 273.501,274.320 274.320 C 273.501 275.139,250.560 274.993,250.243 274.167 C 249.507 272.249,249.999 251.601,250.800 250.800 C 251.601 249.999,272.249 249.507,274.167 250.243 M249.757 275.833 C 250.493 277.751,250.001 298.399,249.200 299.200 C 248.409 299.991,247.867 300.000,200.000 300.000 C 152.133 300.000,151.591 299.991,150.800 299.200 C 149.999 298.399,149.507 277.751,150.243 275.833 C 150.615 274.863,249.385 274.863,249.757 275.833 M75.776 312.600 C 75.776 318.760,75.832 321.224,75.899 318.076 C 75.967 314.927,75.967 309.887,75.899 306.876 C 75.831 303.864,75.776 306.440,75.776 312.600 M324.176 312.600 C 324.176 318.760,324.232 321.224,324.299 318.076 C 324.367 314.927,324.367 309.887,324.299 306.876 C 324.231 303.864,324.176 306.440,324.176 312.600 M81.924 324.299 C 85.073 324.367,90.113 324.367,93.124 324.299 C 96.136 324.231,93.560 324.176,87.400 324.176 C 81.240 324.176,78.776 324.232,81.924 324.299 M307.124 324.299 C 310.273 324.367,315.313 324.367,318.324 324.299 C 321.336 324.231,318.760 324.176,312.600 324.176 C 306.440 324.176,303.976 324.232,307.124 324.299 M99.200 324.684 C 101.211 325.423,101.200 325.352,101.200 337.462 L 101.200 348.800 200.000 348.800 L 298.800 348.800 298.800 337.462 C 298.800 325.352,298.789 325.423,300.800 324.684 C 301.314 324.495,301.310 324.459,300.770 324.432 C 300.423 324.414,299.717 324.850,299.200 325.400 L 298.261 326.400 200.000 326.400 L 101.739 326.400 100.800 325.400 C 100.283 324.850,99.577 324.414,99.230 324.432 C 98.690 324.459,98.686 324.495,99.200 324.684 M25.118 336.582 C 25.201 344.652,25.388 348.421,25.757 349.490 L 26.280 351.000 37.440 351.200 L 48.600 351.400 48.800 362.560 L 49.000 373.720 50.510 374.243 C 52.660 374.986,75.133 375.231,74.132 374.500 C 73.624 374.129,70.637 374.000,62.556 374.000 C 56.566 374.000,51.381 373.891,51.033 373.757 C 50.477 373.544,50.400 372.195,50.400 362.726 L 50.400 351.938 49.231 350.769 L 48.062 349.600 37.274 349.600 C 27.805 349.600,26.456 349.523,26.243 348.967 C 26.109 348.619,26.000 343.434,26.000 337.444 C 26.000 329.363,25.871 326.376,25.500 325.868 C 25.097 325.316,25.023 327.387,25.118 336.582 M374.432 325.939 C 374.153 326.461,374.000 330.571,374.000 337.541 C 374.000 343.477,373.891 348.619,373.757 348.967 C 373.544 349.523,372.195 349.600,362.726 349.600 L 351.938 349.600 350.769 350.769 L 349.600 351.938 349.600 362.726 C 349.600 372.195,349.523 373.544,348.967 373.757 C 348.619 373.891,343.434 374.000,337.444 374.000 C 329.363 374.000,326.376 374.129,325.868 374.500 C 324.867 375.231,347.340 374.986,349.490 374.243 L 351.000 373.720 351.200 362.560 L 351.400 351.400 362.512 351.294 L 373.625 351.187 374.108 350.094 C 374.498 349.210,375.271 325.938,374.932 325.266 C 374.895 325.192,374.670 325.495,374.432 325.939 " stroke="none" fill="#343434" fill-rule="evenodd"></path><path id="path3" d="M75.868 50.725 C 75.278 51.377,75.200 52.756,75.200 62.531 L 75.200 73.600 87.006 73.600 L 98.812 73.600 98.706 61.900 L 98.600 50.200 87.568 50.094 C 77.277 49.995,76.490 50.037,75.868 50.725 M301.467 50.267 C 301.320 50.413,301.200 55.723,301.200 62.067 L 301.200 73.600 313.000 73.600 L 324.800 73.600 324.800 62.462 C 324.800 52.180,324.744 51.273,324.069 50.662 C 323.312 49.977,302.127 49.607,301.467 50.267 M50.655 75.939 C 50.059 76.598,49.998 77.863,50.093 87.639 L 50.200 98.600 61.900 98.706 L 73.600 98.812 73.600 87.006 L 73.600 75.200 62.462 75.200 C 52.140 75.200,51.275 75.254,50.655 75.939 M326.400 87.006 L 326.400 98.812 338.100 98.706 L 349.800 98.600 349.907 87.639 C 350.043 73.619,351.615 75.200,337.538 75.200 L 326.400 75.200 326.400 87.006 M50.267 301.467 C 49.548 302.185,49.984 323.462,50.731 324.138 C 51.375 324.720,52.793 324.800,62.531 324.800 L 73.600 324.800 73.600 313.000 L 73.600 301.200 62.067 301.200 C 55.723 301.200,50.413 301.320,50.267 301.467 M326.400 312.994 L 326.400 324.800 337.538 324.800 C 351.615 324.800,350.043 326.381,349.907 312.361 L 349.800 301.400 338.100 301.294 L 326.400 301.188 326.400 312.994 M75.200 337.538 C 75.200 351.615,73.619 350.043,87.639 349.907 L 98.600 349.800 98.706 338.100 L 98.812 326.400 87.006 326.400 L 75.200 326.400 75.200 337.538 M301.294 338.100 L 301.400 349.800 312.361 349.907 C 326.381 350.043,324.800 351.615,324.800 337.538 L 324.800 326.400 312.994 326.400 L 301.188 326.400 301.294 338.100 " stroke="none" fill="#fcac04" fill-rule="evenodd"></path><path id="path4" d="M75.800 24.693 C 75.360 24.805,74.645 25.145,74.211 25.448 C 73.587 25.884,71.144 26.000,62.544 26.000 C 56.561 26.000,51.381 26.109,51.033 26.243 C 50.477 26.456,50.400 27.805,50.400 37.274 L 50.400 48.062 49.231 49.231 L 48.062 50.400 37.274 50.400 C 27.805 50.400,26.456 50.477,26.243 51.033 C 26.109 51.381,26.000 56.561,26.000 62.544 C 26.000 72.261,25.925 73.528,25.300 74.411 C 24.211 75.949,24.211 324.051,25.300 325.589 C 25.925 326.472,26.000 327.739,26.000 337.456 C 26.000 343.439,26.109 348.619,26.243 348.967 C 26.456 349.523,27.805 349.600,37.274 349.600 L 48.062 349.600 49.231 350.769 L 50.400 351.938 50.400 362.726 C 50.400 372.195,50.477 373.544,51.033 373.757 C 51.381 373.891,56.561 374.000,62.544 374.000 C 72.261 374.000,73.528 374.075,74.411 374.700 C 75.949 375.789,324.051 375.789,325.589 374.700 C 326.472 374.075,327.739 374.000,337.456 374.000 C 343.439 374.000,348.619 373.891,348.967 373.757 C 349.523 373.544,349.600 372.195,349.600 362.726 L 349.600 351.938 350.769 350.769 L 351.938 349.600 362.726 349.600 C 372.195 349.600,373.544 349.523,373.757 348.967 C 373.891 348.619,374.000 343.439,374.000 337.456 C 374.000 327.739,374.075 326.472,374.700 325.589 C 375.789 324.051,375.789 75.949,374.700 74.411 C 374.075 73.528,374.000 72.261,374.000 62.544 C 374.000 56.561,373.891 51.381,373.757 51.033 C 373.544 50.477,372.195 50.400,362.726 50.400 L 351.938 50.400 350.769 49.231 L 349.600 48.062 349.600 37.274 C 349.600 27.805,349.523 26.456,348.967 26.243 C 348.619 26.109,343.439 26.000,337.456 26.000 C 327.739 26.000,326.472 25.925,325.589 25.300 C 324.629 24.620,78.444 24.022,75.800 24.693 M324.426 26.014 C 325.163 26.409,325.200 26.966,325.200 37.800 C 325.200 48.634,325.237 49.191,325.974 49.586 C 326.453 49.842,330.897 50.000,337.642 50.000 C 351.561 50.000,350.000 48.448,350.000 62.288 C 350.000 69.081,350.158 73.547,350.414 74.026 C 350.809 74.763,351.366 74.800,362.200 74.800 C 373.034 74.800,373.591 74.837,373.986 75.574 C 374.565 76.656,374.565 323.344,373.986 324.426 C 373.591 325.163,373.034 325.200,362.200 325.200 C 351.366 325.200,350.809 325.237,350.414 325.974 C 350.158 326.453,350.000 330.897,350.000 337.642 C 350.000 351.561,351.552 350.000,337.712 350.000 C 330.919 350.000,326.453 350.158,325.974 350.414 C 325.237 350.809,325.200 351.366,325.200 362.200 C 325.200 373.034,325.163 373.591,324.426 373.986 C 323.344 374.565,76.656 374.565,75.574 373.986 C 74.837 373.591,74.800 373.034,74.800 362.200 C 74.800 351.366,74.763 350.809,74.026 350.414 C 73.547 350.158,69.103 350.000,62.358 350.000 C 48.439 350.000,50.000 351.552,50.000 337.712 C 50.000 330.919,49.842 326.453,49.586 325.974 C 49.191 325.237,48.634 325.200,37.800 325.200 C 26.966 325.200,26.409 325.163,26.014 324.426 C 25.435 323.344,25.435 76.656,26.014 75.574 C 26.409 74.837,26.966 74.800,37.800 74.800 C 48.634 74.800,49.191 74.763,49.586 74.026 C 49.842 73.547,50.000 69.103,50.000 62.358 C 50.000 48.439,48.448 50.000,62.288 50.000 C 69.081 50.000,73.547 49.842,74.026 49.586 C 74.763 49.191,74.800 48.634,74.800 37.806 C 74.800 27.403,74.859 26.405,75.500 26.032 C 76.485 25.458,323.355 25.440,324.426 26.014 M100.889 50.223 C 100.006 50.841,100.000 50.922,100.000 62.143 C 100.000 70.396,99.871 73.569,99.520 73.920 C 99.169 74.271,95.987 74.400,87.702 74.400 L 76.364 74.400 75.382 75.382 L 74.400 76.364 74.400 87.702 C 74.400 95.987,74.271 99.169,73.920 99.520 C 73.569 99.871,70.396 100.000,62.143 100.000 C 50.922 100.000,50.841 100.006,50.223 100.889 C 49.663 101.688,49.600 111.749,49.600 200.000 C 49.600 288.251,49.663 298.312,50.223 299.111 C 50.841 299.994,50.922 300.000,62.143 300.000 C 70.396 300.000,73.569 300.129,73.920 300.480 C 74.271 300.831,74.400 304.013,74.400 312.298 L 74.400 323.636 75.382 324.618 L 76.364 325.600 87.702 325.600 C 95.987 325.600,99.169 325.729,99.520 326.080 C 99.871 326.431,100.000 329.604,100.000 337.857 C 100.000 349.078,100.006 349.159,100.889 349.777 C 102.248 350.729,297.752 350.729,299.111 349.777 C 299.994 349.159,300.000 349.078,300.000 337.857 C 300.000 329.604,300.129 326.431,300.480 326.080 C 300.831 325.729,304.013 325.600,312.298 325.600 L 323.636 325.600 324.618 324.618 L 325.600 323.636 325.600 312.298 C 325.600 304.013,325.729 300.831,326.080 300.480 C 326.431 300.129,329.604 300.000,337.857 300.000 C 349.078 300.000,349.159 299.994,349.777 299.111 C 350.729 297.752,350.729 102.248,349.777 100.889 C 349.159 100.006,349.078 100.000,337.857 100.000 C 329.604 100.000,326.431 99.871,326.080 99.520 C 325.729 99.169,325.600 95.987,325.600 87.702 L 325.600 76.364 324.618 75.382 L 323.636 74.400 312.298 74.400 C 304.013 74.400,300.831 74.271,300.480 73.920 C 300.129 73.569,300.000 70.396,300.000 62.143 C 300.000 50.922,299.994 50.841,299.111 50.223 C 297.752 49.271,102.248 49.271,100.889 50.223 M298.800 62.538 C 298.800 77.002,297.146 75.366,311.922 75.518 C 319.092 75.592,323.549 75.791,323.863 76.053 C 324.240 76.365,324.395 79.354,324.483 87.993 C 324.634 102.868,322.995 101.200,337.462 101.200 L 348.800 101.200 348.800 200.000 L 348.800 298.800 337.462 298.800 C 322.998 298.800,324.634 297.146,324.482 311.922 C 324.408 319.092,324.209 323.549,323.947 323.863 C 323.635 324.240,320.646 324.395,312.007 324.483 C 297.132 324.634,298.800 322.995,298.800 337.462 L 298.800 348.800 200.000 348.800 L 101.200 348.800 101.200 337.462 C 101.200 322.995,102.868 324.634,87.993 324.483 C 79.354 324.395,76.365 324.240,76.053 323.863 C 75.791 323.549,75.592 319.092,75.518 311.922 C 75.366 297.146,77.002 298.800,62.538 298.800 L 51.200 298.800 51.200 200.000 L 51.200 101.200 62.538 101.200 C 77.005 101.200,75.366 102.868,75.517 87.993 C 75.605 79.354,75.760 76.365,76.137 76.053 C 76.451 75.791,80.908 75.592,88.078 75.518 C 102.854 75.366,101.200 77.002,101.200 62.538 L 101.200 51.200 200.000 51.200 L 298.800 51.200 298.800 62.538 M175.700 100.300 C 189.065 100.358,210.935 100.358,224.300 100.300 C 237.665 100.242,226.730 100.194,200.000 100.194 C 173.270 100.194,162.335 100.242,175.700 100.300 M150.176 112.800 C 150.176 119.070,150.232 121.635,150.299 118.500 C 150.367 115.365,150.367 110.235,150.299 107.100 C 150.232 103.965,150.176 106.530,150.176 112.800 M249.776 112.800 C 249.776 119.070,249.832 121.635,249.899 118.500 C 249.967 115.365,249.967 110.235,249.899 107.100 C 249.832 103.965,249.776 106.530,249.776 112.800 M149.776 137.200 C 149.776 143.470,149.832 146.035,149.899 142.900 C 149.967 139.765,149.967 134.635,149.899 131.500 C 149.832 128.365,149.776 130.930,149.776 137.200 M250.176 137.200 C 250.176 143.470,250.232 146.035,250.299 142.900 C 250.367 139.765,250.367 134.635,250.299 131.500 C 250.232 128.365,250.176 130.930,250.176 137.200 M131.500 149.899 C 134.635 149.967,139.765 149.967,142.900 149.899 C 146.035 149.832,143.470 149.776,137.200 149.776 C 130.930 149.776,128.365 149.832,131.500 149.899 M257.100 149.899 C 260.235 149.967,265.365 149.967,268.500 149.899 C 271.635 149.832,269.070 149.776,262.800 149.776 C 256.530 149.776,253.965 149.832,257.100 149.899 M107.100 150.299 C 110.235 150.367,115.365 150.367,118.500 150.299 C 121.635 150.232,119.070 150.176,112.800 150.176 C 106.530 150.176,103.965 150.232,107.100 150.299 M281.500 150.299 C 284.635 150.367,289.765 150.367,292.900 150.299 C 296.035 150.232,293.470 150.176,287.200 150.176 C 280.930 150.176,278.365 150.232,281.500 150.299 M100.194 200.000 C 100.194 226.730,100.242 237.665,100.300 224.300 C 100.358 210.935,100.358 189.065,100.300 175.700 C 100.242 162.335,100.194 173.270,100.194 200.000 M299.794 200.000 C 299.794 226.730,299.842 237.665,299.900 224.300 C 299.958 210.935,299.958 189.065,299.900 175.700 C 299.842 162.335,299.794 173.270,299.794 200.000 M199.776 187.600 C 199.776 193.870,199.832 196.435,199.899 193.300 C 199.967 190.165,199.967 185.035,199.899 181.900 C 199.832 178.765,199.776 181.330,199.776 187.600 M181.900 199.899 C 185.035 199.967,190.165 199.967,193.300 199.899 C 196.435 199.832,193.870 199.776,187.600 199.776 C 181.330 199.776,178.765 199.832,181.900 199.899 M206.700 200.299 C 209.835 200.367,214.965 200.367,218.100 200.299 C 221.235 200.232,218.670 200.176,212.400 200.176 C 206.130 200.176,203.565 200.232,206.700 200.299 M200.176 212.400 C 200.176 218.670,200.232 221.235,200.299 218.100 C 200.367 214.965,200.367 209.835,200.299 206.700 C 200.232 203.565,200.176 206.130,200.176 212.400 M107.100 249.899 C 110.235 249.967,115.365 249.967,118.500 249.899 C 121.635 249.832,119.070 249.776,112.800 249.776 C 106.530 249.776,103.965 249.832,107.100 249.899 M281.500 249.899 C 284.635 249.967,289.765 249.967,292.900 249.899 C 296.035 249.832,293.470 249.776,287.200 249.776 C 280.930 249.776,278.365 249.832,281.500 249.899 M131.500 250.299 C 134.635 250.367,139.765 250.367,142.900 250.299 C 146.035 250.232,143.470 250.176,137.200 250.176 C 130.930 250.176,128.365 250.232,131.500 250.299 M257.100 250.299 C 260.235 250.367,265.365 250.367,268.500 250.299 C 271.635 250.232,269.070 250.176,262.800 250.176 C 256.530 250.176,253.965 250.232,257.100 250.299 M149.776 262.800 C 149.776 269.070,149.832 271.635,149.899 268.500 C 149.967 265.365,149.967 260.235,149.899 257.100 C 149.832 253.965,149.776 256.530,149.776 262.800 M250.176 262.800 C 250.176 269.070,250.232 271.635,250.299 268.500 C 250.367 265.365,250.367 260.235,250.299 257.100 C 250.232 253.965,250.176 256.530,250.176 262.800 M150.176 287.200 C 150.176 293.470,150.232 296.035,150.299 292.900 C 150.367 289.765,150.367 284.635,150.299 281.500 C 150.232 278.365,150.176 280.930,150.176 287.200 M249.776 287.200 C 249.776 293.470,249.832 296.035,249.899 292.900 C 249.967 289.765,249.967 284.635,249.899 281.500 C 249.832 278.365,249.776 280.930,249.776 287.200 M175.700 299.900 C 189.065 299.958,210.935 299.958,224.300 299.900 C 237.665 299.842,226.730 299.794,200.000 299.794 C 173.270 299.794,162.335 299.842,175.700 299.900 " stroke="none" fill="#4c4c4c" fill-rule="evenodd"></path><path id="path5" d="M23.600 11.800 L 23.600 23.600 11.800 23.600 L 0.000 23.600 0.000 200.000 L 0.000 376.400 11.800 376.400 L 23.600 376.400 23.600 388.200 L 23.600 400.000 200.000 400.000 L 376.400 400.000 376.400 388.200 L 376.400 376.400 388.200 376.400 L 400.000 376.400 400.000 200.000 L 400.000 23.600 388.200 23.600 L 376.400 23.600 376.400 11.800 L 376.400 0.000 200.000 0.000 L 23.600 0.000 23.600 11.800 M337.200 25.086 C 344.871 25.296,349.383 25.578,350.094 25.892 L 351.187 26.375 351.294 37.488 L 351.400 48.600 362.512 48.706 L 373.625 48.813 374.105 49.906 C 375.816 53.797,375.816 346.203,374.105 350.094 L 373.625 351.187 362.512 351.294 L 351.400 351.400 351.294 362.512 L 351.187 373.625 350.094 374.105 C 346.203 375.816,53.797 375.816,49.906 374.105 L 48.813 373.625 48.706 362.512 L 48.600 351.400 37.488 351.294 L 26.375 351.187 25.895 350.094 C 24.184 346.203,24.184 53.797,25.895 49.906 L 26.375 48.813 37.488 48.706 L 48.600 48.600 48.800 37.435 L 49.000 26.271 50.400 25.766 C 51.382 25.412,55.082 25.243,62.800 25.202 C 68.850 25.170,74.160 24.989,74.600 24.799 C 75.592 24.371,320.889 24.639,337.200 25.086 M100.682 74.700 L 99.583 75.800 87.814 75.922 L 76.044 76.044 75.922 87.796 L 75.800 99.549 74.700 100.696 L 73.600 101.844 73.600 200.000 L 73.600 298.156 74.700 299.304 L 75.800 300.451 75.922 312.204 L 76.044 323.956 87.796 324.078 L 99.549 324.200 100.696 325.300 L 101.844 326.400 200.000 326.400 L 298.156 326.400 299.304 325.300 L 300.451 324.200 312.204 324.078 L 323.956 323.956 324.078 312.204 L 324.200 300.451 325.300 299.304 L 326.400 298.156 326.400 200.000 L 326.400 101.844 325.300 100.696 L 324.200 99.549 324.078 87.796 L 323.956 76.044 312.204 75.922 L 300.451 75.800 299.304 74.700 L 298.156 73.600 199.969 73.600 L 101.782 73.600 100.682 74.700 M249.474 100.470 L 250.400 101.339 250.400 112.827 C 250.400 122.933,250.476 124.344,251.033 124.557 C 251.381 124.691,256.632 124.800,262.701 124.800 C 276.790 124.800,275.200 123.218,275.200 137.229 C 275.200 143.337,275.309 148.619,275.443 148.967 C 275.656 149.524,277.062 149.600,287.117 149.600 C 298.303 149.600,298.568 149.619,299.474 150.470 L 300.400 151.339 300.400 199.944 L 300.400 248.548 299.530 249.474 L 298.661 250.400 287.173 250.400 C 277.067 250.400,275.656 250.476,275.443 251.033 C 275.309 251.381,275.200 256.632,275.200 262.701 C 275.200 276.790,276.782 275.200,262.771 275.200 C 256.663 275.200,251.381 275.309,251.033 275.443 C 250.476 275.656,250.400 277.062,250.400 287.117 C 250.400 298.303,250.381 298.568,249.530 299.474 L 248.661 300.400 200.056 300.400 L 151.452 300.400 150.526 299.530 L 149.600 298.661 149.600 287.173 C 149.600 277.067,149.524 275.656,148.967 275.443 C 148.619 275.309,143.368 275.200,137.299 275.200 C 123.210 275.200,124.800 276.782,124.800 262.771 C 124.800 256.663,124.691 251.381,124.557 251.033 C 124.344 250.476,122.938 250.400,112.883 250.400 C 101.697 250.400,101.432 250.381,100.526 249.530 L 99.600 248.661 99.600 200.056 L 99.600 151.452 100.470 150.526 L 101.339 149.600 112.827 149.600 C 122.933 149.600,124.344 149.524,124.557 148.967 C 124.691 148.619,124.800 143.368,124.800 137.299 C 124.800 123.210,123.218 124.800,137.229 124.800 C 143.337 124.800,148.619 124.691,148.967 124.557 C 149.524 124.344,149.600 122.938,149.600 112.883 C 149.600 101.697,149.619 101.432,150.470 100.526 L 151.339 99.600 199.944 99.600 L 248.548 99.600 249.474 100.470 M150.900 125.465 C 150.516 125.620,150.400 128.340,150.400 137.164 L 150.400 148.661 149.474 149.530 C 148.568 150.381,148.303 150.400,137.117 150.400 C 127.062 150.400,125.656 150.476,125.443 151.033 C 125.125 151.860,125.125 248.140,125.443 248.967 C 125.656 249.524,127.067 249.600,137.173 249.600 L 148.661 249.600 149.530 250.526 C 150.381 251.432,150.400 251.697,150.400 262.883 C 150.400 272.938,150.476 274.344,151.033 274.557 C 151.860 274.875,248.140 274.875,248.967 274.557 C 249.524 274.344,249.600 272.933,249.600 262.827 L 249.600 251.339 250.526 250.470 C 251.432 249.619,251.697 249.600,262.883 249.600 C 272.938 249.600,274.344 249.524,274.557 248.967 C 274.875 248.140,274.875 151.860,274.557 151.033 C 274.344 150.476,272.933 150.400,262.827 150.400 L 251.339 150.400 250.470 149.474 C 249.619 148.568,249.600 148.303,249.600 137.117 C 249.600 127.062,249.524 125.656,248.967 125.443 C 248.210 125.152,151.621 125.174,150.900 125.465 M199.651 175.461 C 200.078 175.974,200.245 178.714,200.400 187.761 L 200.600 199.400 212.239 199.600 C 221.286 199.755,224.026 199.922,224.539 200.349 C 225.542 201.182,225.541 223.361,224.538 224.469 C 223.573 225.535,201.231 225.601,200.349 224.539 C 199.922 224.026,199.755 221.286,199.600 212.239 L 199.400 200.600 187.761 200.400 C 178.714 200.245,175.974 200.078,175.461 199.651 C 174.458 198.818,174.459 176.639,175.462 175.531 C 176.427 174.465,198.769 174.399,199.651 175.461 " stroke="none" fill="#2c2c2c" fill-rule="evenodd"></path></g></svg>